<svg width="196" height="173" viewBox="0 0 196 173" fill="none" xmlns="http://www.w3.org/2000/svg">
<ellipse cx="88" cy="76" rx="88" ry="76" fill="#65C4A5"/>
<rect x="23" y="120" width="45" height="53" rx="8" fill="#65C4A5"/>
<rect x="155" y="50" width="41" height="47" rx="20" fill="#65C4A5"/>
<rect x="109" y="120" width="44" height="53" rx="8" fill="#65C4A5"/>
<path d="M164.81 40.2732C164.961 38.9008 163.971 37.6659 162.598 37.515L140.233 35.0558C138.861 34.9049 137.626 35.8951 137.475 37.2675C137.324 38.64 138.314 39.8749 139.687 40.0258L159.567 42.2118L157.381 62.092C157.23 63.4644 158.22 64.6993 159.592 64.8502C160.965 65.0011 162.2 64.0109 162.351 62.6384L164.81 40.2732ZM86.8759 99.2072L84.9115 100.754L86.8759 99.2072ZM88.2872 99.3688L89.8512 101.319L88.2872 99.3688ZM68.2138 77.1225L66.6619 75.1625L68.2138 77.1225ZM69.6203 77.288L71.5846 75.7416L69.6203 77.288ZM15.325 119L16.8769 120.96L69.7657 79.0825L68.2138 77.1225L66.6619 75.1625L13.773 117.04L15.325 119ZM69.6203 77.288L67.656 78.8344L84.9115 100.754L86.8759 99.2072L88.8402 97.6608L71.5846 75.7416L69.6203 77.288ZM88.2872 99.3688L89.8512 101.319L163.889 41.9504L162.325 40L160.761 38.0496L86.7232 97.4184L88.2872 99.3688ZM86.8759 99.2072L84.9115 100.754C86.1148 102.282 88.3335 102.536 89.8512 101.319L88.2872 99.3688L86.7232 97.4184C87.3736 96.8968 88.3245 97.0057 88.8402 97.6608L86.8759 99.2072ZM68.2138 77.1225L69.7657 79.0825C69.1149 79.5978 68.1694 79.4866 67.656 78.8344L69.6203 77.288L71.5846 75.7416C70.3866 74.2197 68.1804 73.9602 66.6619 75.1625L68.2138 77.1225Z" fill="#EBE8D8"/>
</svg>
