<svg width="920" height="217" viewBox="0 0 920 217" fill="none" xmlns="http://www.w3.org/2000/svg">
<path d="M74.295 198C71.435 193.97 68.5425 189.972 65.6175 186.007C62.6925 182.042 59.8 178.11 56.94 174.21L45.9225 159.097H38.61V139.792H46.41L56.0625 125.947C59.0525 121.787 62.01 117.595 64.935 113.37C67.925 109.08 70.8825 104.855 73.8075 100.695H107.64C102.96 106.61 98.3125 112.46 93.6975 118.245C89.0825 124.03 84.4675 129.847 79.8525 135.697L66.105 152.857L64.8375 139.987L81.8025 162.51C86.5475 168.425 91.26 174.372 95.94 180.352C100.62 186.267 105.3 192.15 109.98 198H74.295ZM11.9925 198C11.9925 191.045 11.9925 184.317 11.9925 177.817C11.9925 171.252 11.9925 163.94 11.9925 155.88V101.767C11.9925 93.8375 11.9925 86.005 11.9925 78.27C11.9925 70.535 11.9925 62.8 11.9925 55.065L41.145 52.53C41.145 60.2 41.145 68.0975 41.145 76.2225C41.145 84.2825 41.145 92.7975 41.145 101.767V161.535C41.145 168.1 41.145 174.275 41.145 180.06C41.145 185.78 41.145 191.76 41.145 198H11.9925ZM118.7 198C118.7 191.045 118.7 184.317 118.7 177.817C118.7 171.252 118.7 163.94 118.7 155.88V146.13C118.7 139.695 118.7 133.942 118.7 128.872C118.7 123.737 118.7 118.927 118.7 114.442C118.7 109.892 118.7 105.31 118.7 100.695L147.853 99.8175C147.853 104.497 147.853 109.145 147.853 113.76C147.853 118.375 147.853 123.282 147.853 128.482C147.853 133.682 147.853 139.565 147.853 146.13V155.88C147.853 163.94 147.853 171.252 147.853 177.817C147.853 184.317 147.853 191.045 147.853 198H118.7ZM133.033 85.68C127.638 85.68 123.315 84.4125 120.065 81.8775C116.88 79.2775 115.288 75.085 115.288 69.3C115.288 64.1 116.88 60.135 120.065 57.405C123.315 54.61 127.703 53.2125 133.228 53.2125C138.753 53.2125 143.075 54.675 146.195 57.6C149.38 60.46 150.973 64.36 150.973 69.3C150.973 75.085 149.38 79.2775 146.195 81.8775C143.01 84.4125 138.623 85.68 133.033 85.68ZM200.663 200.633C191.758 200.633 184.413 198.227 178.628 193.417C172.843 188.607 168.553 182.302 165.758 174.502C162.963 166.702 161.565 158.285 161.565 149.25C161.565 139.565 163.028 130.855 165.953 123.12C168.943 115.385 173.363 109.275 179.213 104.79C185.063 100.305 192.31 98.0625 200.955 98.0625C204.79 98.0625 208.333 98.5825 211.583 99.6225C214.833 100.597 217.693 102.027 220.163 103.912C222.698 105.797 224.843 108.04 226.598 110.64H228.938V101.767C228.938 93.8375 228.938 86.0375 228.938 78.3675C228.938 70.6325 228.938 62.865 228.938 55.065L257.993 52.53C257.993 60.2 257.993 68.0975 257.993 76.2225C257.993 84.2825 257.993 92.7975 257.993 101.767V155.88C257.993 163.94 257.993 171.252 257.993 177.817C257.993 184.317 257.993 191.045 257.993 198H233.325L231.57 185.227H229.523C227.183 188.542 224.55 191.337 221.625 193.612C218.765 195.887 215.58 197.61 212.07 198.78C208.625 200.015 204.823 200.633 200.663 200.633ZM211.68 175.867C214.345 175.867 216.75 175.412 218.895 174.502C221.105 173.592 223.023 172.325 224.648 170.7C226.338 169.075 227.768 167.157 228.938 164.947V131.797C227.638 129.977 226.078 128.417 224.258 127.117C222.503 125.817 220.553 124.842 218.408 124.192C216.263 123.477 214.053 123.12 211.778 123.12C207.228 123.12 203.425 124.322 200.37 126.727C197.38 129.132 195.105 132.35 193.545 136.38C192.05 140.345 191.303 144.7 191.303 149.445C191.303 153.995 192.018 158.285 193.448 162.315C194.943 166.28 197.185 169.53 200.175 172.065C203.23 174.6 207.065 175.867 211.68 175.867ZM308.88 200.633C299.975 200.633 292.63 198.227 286.845 193.417C281.06 188.607 276.77 182.302 273.975 174.502C271.18 166.702 269.783 158.285 269.783 149.25C269.783 139.565 271.245 130.855 274.17 123.12C277.16 115.385 281.58 109.275 287.43 104.79C293.28 100.305 300.528 98.0625 309.173 98.0625C313.008 98.0625 316.55 98.5825 319.8 99.6225C323.05 100.597 325.91 102.027 328.38 103.912C330.915 105.797 333.06 108.04 334.815 110.64H337.155V101.767C337.155 93.8375 337.155 86.0375 337.155 78.3675C337.155 70.6325 337.155 62.865 337.155 55.065L366.21 52.53C366.21 60.2 366.21 68.0975 366.21 76.2225C366.21 84.2825 366.21 92.7975 366.21 101.767V155.88C366.21 163.94 366.21 171.252 366.21 177.817C366.21 184.317 366.21 191.045 366.21 198H341.543L339.788 185.227H337.74C335.4 188.542 332.768 191.337 329.843 193.612C326.983 195.887 323.798 197.61 320.288 198.78C316.843 200.015 313.04 200.633 308.88 200.633ZM319.898 175.867C322.563 175.867 324.968 175.412 327.113 174.502C329.323 173.592 331.24 172.325 332.865 170.7C334.555 169.075 335.985 167.157 337.155 164.947V131.797C335.855 129.977 334.295 128.417 332.475 127.117C330.72 125.817 328.77 124.842 326.625 124.192C324.48 123.477 322.27 123.12 319.995 123.12C315.445 123.12 311.643 124.322 308.588 126.727C305.598 129.132 303.323 132.35 301.763 136.38C300.268 140.345 299.52 144.7 299.52 149.445C299.52 153.995 300.235 158.285 301.665 162.315C303.16 166.28 305.403 169.53 308.393 172.065C311.448 174.6 315.283 175.867 319.898 175.867ZM383.557 198C383.557 191.045 383.557 184.317 383.557 177.817C383.557 171.252 383.557 163.94 383.557 155.88V146.13C383.557 139.695 383.557 133.942 383.557 128.872C383.557 123.737 383.557 118.927 383.557 114.442C383.557 109.892 383.557 105.31 383.557 100.695L412.71 99.8175C412.71 104.497 412.71 109.145 412.71 113.76C412.71 118.375 412.71 123.282 412.71 128.482C412.71 133.682 412.71 139.565 412.71 146.13V155.88C412.71 163.94 412.71 171.252 412.71 177.817C412.71 184.317 412.71 191.045 412.71 198H383.557ZM397.89 85.68C392.495 85.68 388.172 84.4125 384.922 81.8775C381.737 79.2775 380.145 75.085 380.145 69.3C380.145 64.1 381.737 60.135 384.922 57.405C388.172 54.61 392.56 53.2125 398.085 53.2125C403.61 53.2125 407.932 54.675 411.052 57.6C414.237 60.46 415.83 64.36 415.83 69.3C415.83 75.085 414.237 79.2775 411.052 81.8775C407.867 84.4125 403.48 85.68 397.89 85.68ZM480.145 200.535C467.6 200.535 457.33 198.325 449.335 193.905C441.405 189.485 435.555 183.407 431.785 175.672C428.08 167.937 426.227 159.065 426.227 149.055C426.227 139.045 427.982 130.205 431.492 122.535C435.002 114.865 440.235 108.885 447.19 104.595C454.21 100.24 462.92 98.0625 473.32 98.0625C482.16 98.0625 489.732 99.655 496.037 102.84C502.342 105.96 507.185 110.705 510.565 117.075C513.945 123.445 515.635 131.472 515.635 141.157C515.635 143.757 515.57 146.065 515.44 148.08C515.31 150.095 515.082 152.11 514.757 154.125L489.797 144.667C489.927 143.822 490.025 142.945 490.09 142.035C490.155 141.125 490.187 140.28 490.187 139.5C490.187 132.935 488.627 127.8 485.507 124.095C482.452 120.325 478.487 118.44 473.612 118.44C469.907 118.44 466.625 119.545 463.765 121.755C460.905 123.9 458.662 126.922 457.037 130.822C455.412 134.722 454.6 139.37 454.6 144.765V149.542C454.6 155.197 455.607 160.04 457.622 164.07C459.702 168.1 462.887 171.187 467.177 173.332C471.467 175.477 476.96 176.55 483.655 176.55C486.255 176.55 489.245 176.322 492.625 175.867C496.07 175.347 499.547 174.6 503.057 173.625C506.632 172.585 509.947 171.285 513.002 169.725L513.977 194.295C511.442 195.465 508.485 196.537 505.105 197.512C501.79 198.423 498.02 199.138 493.795 199.658C489.57 200.243 485.02 200.535 480.145 200.535ZM437.44 154.125V138.525L497.792 137.257L514.757 142.035V154.125H437.44Z" fill="#65C4A5"/>
<ellipse cx="661" cy="116" rx="88" ry="76" fill="#65C4A5"/>
<rect x="596" y="160" width="45" height="53" rx="8" fill="#65C4A5"/>
<rect x="728" y="90" width="41" height="47" rx="20" fill="#65C4A5"/>
<rect x="682" y="160" width="44" height="53" rx="8" fill="#65C4A5"/>
<path d="M737.81 80.2732C737.961 78.9008 736.971 77.6659 735.598 77.515L713.233 75.0558C711.861 74.9049 710.626 75.8951 710.475 77.2675C710.324 78.64 711.314 79.8749 712.687 80.0258L732.567 82.2118L730.381 102.092C730.23 103.464 731.22 104.699 732.592 104.85C733.965 105.001 735.2 104.011 735.351 102.638L737.81 80.2732ZM659.876 139.207L657.912 140.754L659.876 139.207ZM661.287 139.369L662.851 141.319L661.287 139.369ZM641.214 117.123L639.662 115.163L641.214 117.123ZM642.62 117.288L644.585 115.742L642.62 117.288ZM588.325 159L589.877 160.96L642.766 119.083L641.214 117.123L639.662 115.163L586.773 157.04L588.325 159ZM642.62 117.288L640.656 118.834L657.912 140.754L659.876 139.207L661.84 137.661L644.585 115.742L642.62 117.288ZM661.287 139.369L662.851 141.319L736.889 81.9504L735.325 80L733.761 78.0496L659.723 137.418L661.287 139.369ZM659.876 139.207L657.912 140.754C659.115 142.282 661.334 142.536 662.851 141.319L661.287 139.369L659.723 137.418C660.374 136.897 661.325 137.006 661.84 137.661L659.876 139.207ZM641.214 117.123L642.766 119.083C642.115 119.598 641.169 119.487 640.656 118.834L642.62 117.288L644.585 115.742C643.387 114.22 641.18 113.96 639.662 115.163L641.214 117.123Z" fill="#EBE8D8"/>
<path d="M587 160L518.903 213.785C518.727 213.924 518.508 214 518.283 214H14" stroke="#65C4A5" stroke-width="5" stroke-linecap="square"/>
</svg>
